<?xml version="1.0" standalone="no"?>
<!DOCTYPE svg PUBLIC "-//W3C//DTD SVG 20010904//EN"
 "http://www.w3.org/TR/2001/REC-SVG-20010904/DTD/svg10.dtd">
<svg version="1.0" xmlns="http://www.w3.org/2000/svg"
 width="256.000000pt" height="256.000000pt" viewBox="0 0 256.000000 256.000000"
 preserveAspectRatio="xMidYMid meet">
<metadata>
Created by potrace 1.12, written by Peter Selinger 2001-2015
</metadata>
<g transform="translate(0.000000,256.000000) scale(0.100000,-0.100000)"
fill="#000000" stroke="none">
<path d="M1165 2384 c-154 -34 -295 -142 -368 -281 -52 -100 -67 -178 -67
-359 l0 -152 -64 -4 c-82 -5 -135 -39 -171 -111 l-25 -51 0 -545 c0 -507 2
-549 19 -586 22 -50 79 -101 128 -115 26 -8 237 -10 684 -8 l646 3 48 30 c35
21 56 45 74 80 l26 49 0 546 0 546 -26 49 c-35 70 -90 106 -171 114 l-63 6 -6
185 c-4 155 -9 194 -27 243 -98 269 -368 421 -637 361z m239 -215 c77 -28 148
-96 188 -177 l33 -67 0 -165 0 -165 -343 0 -344 0 1 158 c2 175 12 220 63 296
84 121 260 174 402 120z m-56 -954 c133 -56 163 -222 57 -320 l-36 -32 23
-161 c23 -161 23 -161 3 -166 -32 -9 -219 -7 -233 3 -10 6 -9 38 9 168 l23
161 -33 28 c-37 31 -70 95 -71 135 0 38 27 110 53 138 29 31 94 61 135 61 18
0 49 -7 70 -15z"/>
</g>
</svg>
